#!OML:ASF X:\für Bonn\!DataBase\2005_08_12_Daniel\c3d\Daniel.ASF
:FULLY-SPECIFIED
:DEGREES
201
root 9.39794 16.9317 1.65241 -741.662 -68.0904 734.627
lowerback 15.1306 -5.62178 -9.37412
upperback 4.8484 -9.18939 -3.93079
thorax -2.4376 -4.68165 2.54915
lowerneck 13.4611 7.97677 3.16306
upperneck 2.47711 10.7467 -3.73736
head -1.09068 5.3938 -2.23245
rclavicle 5.96354e-014 -2.8625e-014
rhumerus -34.9395 5.91426 -93.9774
rradius 54.1698
rwrist 8.61581
rhand -25.8652 19.742
rfingers 7.12502
rthumb 0.67591 -10.2367
lclavicle 5.96354e-014 -2.8625e-014
lhumerus -36.411 7.55429 81.5733
lradius 118.913
lwrist 200.397
lhand -12.9628 14.5756
lfingers 7.12502
lthumb 13.129 44.1423
rfemur -27.9237 2.5025 2.90961
rtibia 41.1244
rfoot -11.3554 -15.597
rtoes -4.3511
lfemur 0.017678 -12.2087 -25.9733
ltibia 39.3118
lfoot -32.6577 -4.64526
ltoes -14.7938
202
root 9.51443 16.9376 1.67512 -741.714 -68.3883 734.736
lowerback 15.1319 -5.48316 -9.27464
upperback 4.8203 -8.99899 -3.98566
thorax -2.51318 -4.58266 2.41885
lowerneck 13.2942 7.83665 2.9378
upperneck 2.39637 10.5374 -3.41162
head -1.1256 5.28056 -2.07675
rclavicle 9.19379e-014 -1.59028e-014
rhumerus -34.9961 6.14943 -94.4669
rradius 54.477
rwrist 8.4972
rhand -25.665 19.6414
rfingers 7.12502
rthumb 0.869296 -10.3366
lclavicle 9.19379e-014 -1.59028e-014
lhumerus -37.0641 7.49021 81.6215
lradius 118.772
lwrist 200.3
lhand -13.1119 14.3423
lfingers 7.12502
lthumb 12.9853 43.9182
rfemur -27.9065 0.997267 3.47111
rtibia 41.7664
rfoot -12.1476 -13.703
rtoes -5.65732
lfemur -0.541963 -12.2008 -26.1341
ltibia 39.5631
lfoot -32.4671 -4.32593
ltoes -14.5724
203
root 9.62962 16.9421 1.69576 -741.722 -68.6728 734.808
lowerback 15.1222 -5.35331 -9.18049
upperback 4.79007 -8.81935 -4.03763
thorax -2.58167 -4.48936 2.29387
lowerneck 13.1473 7.69406 2.75729
upperneck 2.31183 10.3312 -3.12688
head -1.15951 5.17042 -1.94349
rclavicle -2.9122e-014 -1.82882e-014
rhumerus -35.0546 6.32775 -94.9537
rradius 54.7763
rwrist 8.32126
rhand -25.5399 19.5462
rfingers 7.12502
rthumb 0.99016 -10.4312
lclavicle -2.9122e-014 -1.82882e-014
lhumerus -37.763 7.42682 81.6362
lradius 118.658
lwrist 200.173
lhand -13.2276 14.1718
lfingers 7.12502
lthumb 12.8738 43.7548
rfemur -27.8698 -0.513366 4.04908
rtibia 42.4849
rfoot -12.8962 -11.9141
rtoes -7.29863
lfemur -1.12663 -12.184 -26.257
ltibia 39.8453
lfoot -32.2734 -4.04423
ltoes -14.4297
204
root 9.74314 16.9473 1.71483 -741.727 -68.9355 734.864
lowerback 15.115 -5.22902 -9.0791
upperback 4.76459 -8.64655 -4.09773
thorax -2.64723 -4.39993 2.15696
lowerneck 13.0087 7.54908 2.61821
upperneck 2.24712 10.1278 -2.85153
head -1.18468 5.0621 -1.82026
rclavicle 5.04913e-014 -1.43125e-014
rhumerus -35.1013 6.42405 -95.429
rradius 55.0533
rwrist 8.17919
rhand -25.4558 19.4374
rfingers 7.12502
rthumb 1.07132 -10.5397
lclavicle 5.04913e-014 -1.43125e-014
lhumerus -38.4882 7.33114 81.5781
lradius 118.531
lwrist 200.136
lhand -13.2874 14.0183
lfingers 7.12502
lthumb 12.8161 43.6049
rfemur -27.8031 -1.966 4.60382
rtibia 43.2884
rfoot -13.6202 -10.2961
rtoes -8.11349
lfemur -1.69678 -12.1915 -26.3748
ltibia 40.1354
lfoot -32.091 -3.76736
ltoes -14.2796
205
root 9.85561 16.9535 1.73288 -741.715 -69.1917 734.92
lowerback 15.0649 -5.11603 -8.95075
upperback 4.74681 -8.48175 -4.19916
thorax -2.69037 -4.316 1.95831
lowerneck 12.9243 7.38677 2.6468
upperneck 2.15456 9.92425 -2.66333
head -1.21523 4.95721 -1.75643
rclavicle 2.92213e-014 -3.02153e-014
rhumerus -35.1341 6.41135 -95.9572
rradius 55.2953
rwrist 8.02615
rhand -25.3965 19.3998
rfingers 7.12502
rthumb 1.12861 -10.577
lclavicle 2.92213e-014 -3.02153e-014
lhumerus -39.2233 7.21699 81.4275
lradius 118.419
lwrist 200.096
lhand -13.37 13.9143
lfingers 7.12502
lthumb 12.7365 43.5058
rfemur -27.7534 -3.37009 5.1329
rtibia 44.1719
rfoot -14.3707 -8.87065
rtoes -8.47227
lfemur -2.28172 -12.2092 -26.4866
ltibia 40.4232
lfoot -31.9012 -3.48896
ltoes -14.1492
206
root 9.96617 16.9579 1.74905 -741.633 -69.4353 734.892
lowerback 15.0343 -5.00452 -8.8146
upperback 4.72575 -8.31898 -4.2812
thorax -2.74396 -4.2325 1.7778
lowerneck 12.7578 7.22221 2.63103
upperneck 2.13911 9.71144 -2.41983
head -1.21087 4.84562 -1.66045
rclavicle 3.53837e-014 -4.77083e-015
rhumerus -35.1623 6.3067 -96.4599
rradius 55.4868
rwrist 7.94232
rhand -25.404 19.457
rfingers 7.12502
rthumb 1.12134 -10.5198
lclavicle 3.53837e-014 -4.77083e-015
lhumerus -39.9814 7.08414 81.2468
lradius 118.297
lwrist 200.116
lhand -13.3972 13.9215
lfingers 7.12502
lthumb 12.7103 43.5147
rfemur -27.6726 -4.71979 5.66409
rtibia 45.1095
rfoot -15.1101 -7.61872
rtoes -8.46731
lfemur -2.85211 -12.2264 -26.5527
ltibia 40.7123
lfoot -31.7208 -3.2323
ltoes -14.0297
207
root 10.0755 16.9602 1.76344 -741.601 -69.6546 734.924
lowerback 15.0154 -4.88246 -8.73504
upperback 4.68506 -8.1509 -4.33019
thorax -2.81071 -4.14514 1.66273
lowerneck 12.6258 7.05674 2.54721
upperneck 2.10363 9.48768 -2.18984
head -1.22121 4.72865 -1.55992
rclavicle -3.97569e-014 4.77083e-015
rhumerus -35.2321 6.15731 -96.8843
rradius 55.6931
rwrist 7.86574
rhand -25.3882 19.5594
rfingers 7.12502
rthumb 1.13663 -10.4173
lclavicle -3.97569e-014 4.77083e-015
lhumerus -40.7663 6.97286 81.1313
lradius 118.171
lwrist 200.154
lhand -13.4411 13.9454
lfingers 7.12502
lthumb 12.668 43.5412
rfemur -27.581 -6.03801 6.15028
rtibia 46.0837
rfoot -15.737 -6.51977
rtoes -8.57118
lfemur -3.43918 -12.2507 -26.6344
ltibia 41.0149
lfoot -31.5575 -2.9845
ltoes -13.9883
